<svg width="100" height="100" viewBox="0 0 100 100" fill="none" xmlns="http://www.w3.org/2000/svg">
<path d="M0 0H100V100H0V0Z" fill="#C8102E"/>
<path d="M46.8936 15.4866C46.8936 17.1299 48.2536 18.4599 49.9336 18.4599C49.9569 18.4599 49.9769 18.4666 50.0002 18.4632C50.0236 18.4632 50.0436 18.4599 50.0669 18.4599C51.7469 18.4599 53.1069 17.1299 53.1069 15.4866C53.1069 14.0899 52.1202 12.9199 50.7202 12.5999V10.6399H52.5802V9.3099H50.7202V7.5599H49.3069V9.3099H47.4236V10.6399H49.3069V12.5999C47.8836 12.9166 46.8969 14.0866 46.8969 15.4866H46.8936Z" fill="white"/>
<path d="M49.9768 38.6599C56.9035 38.6599 62.1334 39.0099 67.3001 39.7432L70.6935 26.0932C70.4935 26.0332 70.2701 25.9966 70.0235 25.9966C68.9635 25.9966 67.9301 26.6166 67.7168 27.3799C67.4701 28.2566 67.7701 29.0732 68.1401 29.6999C67.6935 29.2032 67.0101 28.7366 66.2701 28.7366C65.5301 28.7366 64.9001 29.6466 64.5868 30.7666C64.2734 31.8866 64.6535 32.7966 65.3768 32.7966C66.1001 32.7966 66.7501 32.3566 67.4668 31.8699C67.3435 32.2999 66.5868 35.4366 64.9835 35.4366L62.4335 35.1266C60.8001 35.1266 60.1435 31.8632 60.0401 31.4966C60.0401 31.4966 61.2968 32.4899 62.0401 32.4899C62.7835 32.4899 63.4968 31.6999 63.6768 30.5799C63.8568 29.4599 63.4168 28.3432 62.6935 28.3432C61.9701 28.3432 61.0701 28.8399 60.4001 29.3466C61.0335 28.7266 61.7568 27.7332 61.9001 26.8499C62.0235 26.0866 61.2635 25.4666 60.2035 25.4666C59.1435 25.4666 58.1835 26.0866 58.0635 26.8499C57.9235 27.7266 58.3401 28.7266 58.7835 29.3532C58.2768 28.8532 57.5368 27.9532 56.7968 27.9532C56.0568 27.9532 55.3401 29.1132 55.1601 30.2366C54.9801 31.3566 55.5501 32.0699 56.2735 32.0699C56.9968 32.0699 57.7435 31.9899 58.4101 31.4899L58.3635 31.6999C58.1368 32.3932 57.2801 34.7499 55.8368 34.7499L53.2868 34.6532C51.7535 34.6532 50.9935 31.6599 50.8201 31.0966L50.8135 30.9666C51.4001 31.4699 52.2235 31.9399 52.9668 31.9399C53.7101 31.9399 54.2768 31.0299 54.2768 29.9099C54.2768 28.7899 53.6901 27.8699 52.9668 27.8699C52.2435 27.8699 51.4201 28.3566 50.8301 28.8599C51.3635 28.2366 51.9268 27.2466 51.9268 26.3632C51.9268 25.5999 51.0668 24.9799 50.0068 24.9799C50.0001 24.9799 49.9968 24.9799 49.9901 24.9799C49.9835 24.9799 49.9801 24.9799 49.9735 24.9799C48.9135 24.9799 48.0535 25.5999 48.0535 26.3632C48.0535 27.2466 48.6168 28.2399 49.1535 28.8599C48.5635 28.3532 47.7468 27.8699 47.0168 27.8699C46.2868 27.8699 45.7068 28.7899 45.7068 29.9099C45.7068 31.0299 46.2935 31.9399 47.0168 31.9399C47.7401 31.9399 48.5835 31.4666 49.1701 30.9666L49.1635 31.0966C48.9901 31.6599 48.2335 34.6532 46.6968 34.6532L44.1468 34.7499C42.7001 34.7499 41.7535 32.3232 41.5268 31.6299L41.4801 31.4199C42.1468 31.9199 42.8501 32.0099 43.5701 32.0099C44.2901 32.0099 44.9135 31.2866 44.7335 30.1632C44.5535 29.0432 43.8201 27.9532 43.0968 27.9532C42.3735 27.9532 41.6168 28.7832 41.1101 29.2832C41.5535 28.6566 41.9701 27.6566 41.8301 26.7799C41.7068 26.0166 40.7468 25.3966 39.6901 25.3966C38.6335 25.3966 37.8701 26.0166 37.9935 26.7799C38.1368 27.6666 38.8568 28.6566 39.4935 29.2766C38.8235 28.7699 37.9268 28.3232 37.2001 28.3232C36.4735 28.3232 36.0368 29.3932 36.2168 30.5132C36.3968 31.6332 37.1301 32.5199 37.8535 32.5199C38.5768 32.5199 39.8535 31.4299 39.8535 31.4299C39.7501 31.7932 39.1868 35.1299 37.5535 35.1299L35.0035 35.4399C33.4001 35.4399 32.6435 32.3032 32.5201 31.8732C33.2401 32.3599 33.9201 32.7999 34.6235 32.7999C35.3268 32.7999 35.7268 31.8899 35.4135 30.7699C35.1001 29.6499 34.4401 28.7399 33.7168 28.7399C32.9935 28.7399 32.2935 29.2066 31.8468 29.7032C32.2168 29.0766 32.5135 28.2599 32.2701 27.3832C32.0568 26.6166 31.0235 25.9999 29.9635 25.9999C29.7168 25.9999 29.4935 26.0366 29.2935 26.0966L32.6968 39.7932C37.9801 39.0266 42.8901 38.6632 49.9635 38.6632L49.9768 38.6599Z" fill="white"/>
<path d="M66.8534 20.1199C65.7768 20.0899 63.8068 19.9833 62.0701 20.3566C61.1734 18.6699 57.9534 18.5733 56.9501 18.6099C55.6901 18.6533 51.8868 19.0299 49.9934 19.6933C48.1034 19.0266 44.3268 18.6599 43.0701 18.6166C42.0668 18.5799 38.8468 18.7133 37.9501 20.4099C36.2101 20.0333 34.2301 20.1399 33.1501 20.1699C31.9268 20.2033 27.7934 20.7133 28.7134 24.1099L29.0601 25.2066C29.6268 24.9866 30.2668 24.9633 31.1134 25.3099L30.8268 24.4499C30.8268 24.4499 30.3534 23.0033 31.8234 22.5899C33.2234 22.1966 35.1834 22.2599 37.9134 22.5899L38.3934 24.7833C38.9901 24.5966 39.9234 24.3766 40.7734 24.7899L40.2468 22.3899C40.2468 22.3899 40.0034 21.0899 41.5434 20.7933C42.8834 20.5333 45.1234 20.9099 47.8634 21.3966C47.8634 21.3966 48.5134 21.4799 48.5534 21.9699C48.6001 22.5299 48.6601 24.4266 48.6601 24.4266C48.8901 24.2499 49.6001 24.0799 50.0101 24.0833C50.4201 24.0833 51.0501 24.2399 51.2834 24.4166L51.4468 21.9699C51.5068 21.5333 52.1068 21.4799 52.1068 21.4799C54.9534 20.9899 57.1068 20.5233 58.4801 20.7866C60.0201 21.0833 59.7768 22.3266 59.7768 22.3266L59.2268 24.7933C60.0768 24.3799 61.0134 24.6066 61.6101 24.7933L62.1068 22.5399C64.8301 22.2066 66.7868 22.1433 68.1834 22.5399C69.6534 22.9533 69.1801 24.3999 69.1801 24.3999L68.9434 25.2599C69.7934 24.9133 70.4301 24.9366 70.9968 25.1566L71.2934 24.0599C72.2134 20.6633 68.0801 20.1533 66.8568 20.1199H66.8534Z" fill="white"/>
<path d="M59.5368 82.0333C59.9768 82.0499 60.2835 82.0466 60.6368 82.0399L61.1402 82.0333C62.4435 82.0766 63.9368 81.6633 65.1368 81.3333C65.8802 81.1266 66.5235 80.9499 66.9335 80.9333C66.9802 80.9499 67.2835 81.1166 67.6702 81.3299C69.8035 82.4999 75.4668 85.6066 77.5368 85.6333C78.0968 85.6033 82.2135 84.1933 82.7768 83.5133L82.8102 83.4733L82.7702 83.4399C82.7435 83.4166 79.5135 81.1933 78.9368 81.2299C78.6502 81.2099 78.5402 81.3433 78.3802 81.5433C78.2369 81.7199 77.9568 82.0266 77.6235 82.2266C77.6235 82.2266 76.9302 82.3833 77.0235 82.2266C77.0468 82.1833 77.0535 82.1733 77.0702 82.1433C77.1702 81.9566 77.3235 81.6766 77.3935 81.3899L77.4002 81.3566L77.3735 81.3366C77.1735 81.1899 76.8302 81.1266 76.3535 81.0366C75.4168 80.8566 74.0035 80.5866 72.3735 79.4399C70.8002 78.4099 70.3769 77.4799 70.0668 76.7999C69.7702 76.1466 69.5735 75.7133 68.5402 75.7299C67.9635 75.7133 67.6602 75.8799 67.3702 76.0399C67.0935 76.1933 66.8335 76.3366 66.3435 76.3299C65.9168 76.3366 65.5002 76.1633 65.1702 75.8399C64.8802 75.5566 64.6968 75.1899 64.6935 74.8799C64.6935 74.4466 64.8202 73.9299 65.0035 73.4099C65.2968 72.5833 65.7435 71.7033 66.0835 71.0366C66.2568 70.6966 66.4068 70.3999 66.4902 70.1999C67.5168 67.9066 67.8102 66.3533 67.9868 65.4233C68.1302 64.6633 68.1968 64.3166 68.5135 64.3033C69.1602 64.3166 69.2369 64.7199 69.4402 65.7933C69.6402 66.8533 69.8135 67.4833 70.7969 70.2133C71.3802 71.8366 72.7802 72.8199 74.2102 73.4166H74.2268C76.2268 74.2499 78.2868 74.3233 78.2868 74.3233C78.3102 74.3233 78.4135 73.9499 78.5502 73.4099C78.9002 72.0166 79.4669 69.5199 79.4635 69.4533V69.4033H79.4568C79.3968 69.1466 78.7668 69.0533 77.8402 68.9099C76.3135 68.6799 74.1002 68.3099 73.5135 66.8599C72.2635 63.7833 71.1002 62.6133 68.8102 62.5999C68.0502 62.6099 67.6668 63.0166 67.4835 63.2133C67.4535 63.2433 67.4202 63.2799 67.4035 63.2933C62.0869 61.2833 59.8035 60.9366 53.9102 63.3799C49.1335 65.3599 45.9068 64.2866 44.3602 63.6633C44.4702 62.8433 44.5569 62.0566 44.6269 61.2899C44.6535 60.9866 44.9469 60.7833 45.2369 60.8699C46.1235 61.1299 47.2568 61.3566 48.6102 61.3566C50.2202 61.3566 52.1335 61.0399 54.3135 60.1366C57.1235 58.9699 58.9868 58.4999 60.7035 58.4999C61.4102 58.4999 62.1168 58.5833 62.8735 58.7399L63.3802 56.7033C62.4802 56.5099 61.6068 56.3999 60.7035 56.3999C58.5802 56.3999 56.4235 56.9866 53.5102 58.1966C51.5735 58.9999 49.9468 59.2533 48.6135 59.2566C47.2068 59.2566 46.1268 58.9733 45.3235 58.6899C45.0268 58.5866 44.8402 58.2999 44.8502 57.9833C44.8768 57.3066 44.8935 56.6499 44.8968 56.0199C44.8968 55.6899 45.2002 55.4533 45.5168 55.5399C46.3568 55.7666 47.3935 55.9499 48.6102 55.9466C50.2202 55.9466 52.1335 55.6299 54.3102 54.7266C57.1202 53.5633 58.9835 53.0933 60.6968 53.0933C61.7802 53.0933 62.8602 53.2866 64.1302 53.6566L64.6368 51.6166C63.2702 51.2233 62.0135 50.9933 60.6968 50.9933C58.5735 50.9933 56.4168 51.5799 53.5035 52.7866C51.5668 53.5899 49.9435 53.8466 48.6068 53.8466C47.1668 53.8466 46.0668 53.5499 45.2602 53.2599C44.9902 53.1633 44.8035 52.9133 44.7868 52.6266C44.7368 51.8699 44.6735 51.1633 44.6002 50.5099C44.5668 50.2133 44.8402 49.9799 45.1235 50.0666C46.0602 50.3599 47.2935 50.6266 48.7868 50.6233C50.4402 50.6233 52.4135 50.2966 54.6535 49.3666C57.5535 48.1666 59.4768 47.6799 61.2535 47.6799C62.5468 47.6799 63.8368 47.9466 65.4235 48.4533L65.9302 46.4099C64.2768 45.8866 62.8035 45.5799 61.2502 45.5799C59.0668 45.5799 56.8468 46.1833 53.8468 47.4266C51.8435 48.2566 50.1668 48.5199 48.7835 48.5233C46.9735 48.5233 45.6768 48.0699 44.8202 47.7266L44.1102 47.3766C43.7502 45.6133 43.4002 44.6833 43.4002 44.6833C43.6968 44.3199 44.7702 43.0133 44.7702 43.0133C44.7702 43.0133 34.9935 43.0133 28.3635 45.4966C26.8135 46.0766 25.2535 46.5333 24.2902 47.1699L25.2402 51.1366C25.2735 51.2699 25.4068 51.3533 25.5402 51.3233L29.1335 50.5266C31.4768 51.0933 33.8935 51.8266 33.8868 52.0733C33.8868 52.3133 33.7835 52.4433 33.5535 52.7333C33.0369 53.3766 31.9602 54.7199 30.1902 59.4566C27.8135 65.8199 28.4668 71.0666 28.4902 71.4133C28.3835 71.6033 26.9402 72.0933 25.6002 72.3899C24.3668 72.6633 22.9035 72.9866 21.5468 73.3999C19.2168 74.1066 17.1935 75.0699 17.1868 76.4699C17.1935 77.8366 17.7268 78.9833 18.8635 80.0766C19.8835 81.0566 21.3802 81.9966 23.7169 83.1199C27.0669 84.7333 29.2302 85.5433 30.4535 85.9366C31.7368 86.3499 32.4035 86.4433 32.5402 86.4266C33.6668 86.4566 37.8068 84.6666 38.0635 84.5199L38.1068 84.4933L38.0835 84.4499C38.0135 84.3199 35.3102 82.3699 34.7402 82.3233H34.7335C34.3535 82.3566 34.1735 82.5066 33.8802 82.7533C33.7702 82.8466 33.6335 82.9599 33.4635 83.0899L33.3435 82.7533C33.2535 82.5033 33.2435 82.3699 33.2335 82.3166C33.2368 82.2333 33.2202 82.1066 33.1568 82.0566L32.8368 82.0199H32.8235L32.8135 82.0266C32.6668 82.1066 32.5468 82.1833 32.4368 82.2533C32.1435 82.4433 31.9102 82.5933 31.3335 82.6233C30.3568 82.6066 28.3735 81.9166 24.4935 78.7166C24.4069 78.6466 24.3535 78.6033 24.3168 78.5733C24.5168 78.3966 24.6635 78.2699 24.9402 78.2299H33.7335C34.1035 78.2599 34.5035 77.9799 34.8268 77.7566C34.9968 77.6366 35.1602 77.5266 35.2335 77.5266C35.2335 77.5266 36.6402 78.6366 38.9735 78.6366C42.7802 78.7266 50.4835 77.1866 50.4835 77.1866C51.4068 77.1833 51.7235 77.8233 52.0235 78.2733C52.4768 78.9533 52.7468 80.0399 54.4202 80.7733C55.9135 81.4299 56.5535 81.7166 58.0035 81.8966C58.6802 81.9799 59.3768 82.0299 59.5302 82.0233L59.5368 82.0333Z" fill="white"/>
</svg>
