<svg id="Layer_1" data-name="Layer 1" xmlns="http://www.w3.org/2000/svg" viewBox="50 50 300 300">
	<defs>
		<style>
			.cls-1 {
				fill: none;
			}        
			.cls-2 {
				fill: #fff;       
			}        
			.cls-3 {         
				fill: #3451b7;       
			}     
		</style>
	</defs>
	<rect class="cls-1" x="0" width="400" height="400"></rect>
	<g>
		<g>
			<polygon class="cls-3" points="50 50 350 50 350 350 50 350 50 50 50 50"></polygon>
			<g>
				<path class="cls-2" d="M193.22,97.3c0,3.59,2.97,6.49,6.64,6.49.05,0,.09.01.14.01s.09-.01.14-.01c3.67,0,6.64-2.91,6.64-6.49,0-3.05-2.15-5.6-5.21-6.3v-4.28h4.06v-2.9h-4.06v-3.82h-3.08v3.82h-4.12v2.9h4.12v4.28c-3.11.69-5.26,3.25-5.26,6.3h0Z"></path>
				<path class="cls-2" d="M199.95,147.9c15.12,0,26.54.77,37.83,2.37l7.41-29.8c-.43-.13-.92-.21-1.46-.21-2.31,0-4.57,1.35-5.04,3.02-.54,1.91.12,3.7.92,5.06-.98-1.09-2.47-2.11-4.08-2.11s-2.99,1.98-3.68,4.43c-.68,2.45.14,4.43,1.72,4.43s3-.96,4.57-2.02c-.27.94-1.92,7.79-5.42,7.79l-5.56-.68c-3.57,0-5-7.13-5.22-7.92,0,0,2.74,2.17,4.37,2.17s3.18-1.72,3.57-4.17c.39-2.45-.57-4.89-2.15-4.89s-3.54,1.09-5.01,2.19c1.39-1.36,2.96-3.52,3.27-5.45.27-1.67-1.39-3.02-3.7-3.02s-4.41,1.35-4.68,3.02c-.31,1.91.6,4.1,1.57,5.47-1.1-1.09-2.72-3.06-4.34-3.06s-3.18,2.54-3.57,4.98c-.39,2.45.85,4,2.43,4s3.21-.18,4.67-1.26l-.1.46c-.5,1.51-2.36,6.66-5.52,6.66l-5.56-.21c-3.35,0-5.01-6.54-5.38-7.77l-.02-.29c1.28,1.1,3.08,2.13,4.7,2.13s2.86-1.98,2.86-4.43-1.28-4.46-2.86-4.46-3.38,1.06-4.66,2.16c1.17-1.36,2.4-3.52,2.4-5.45,0-1.67-1.87-3.02-4.19-3.02h-.06c-2.31,0-4.19,1.35-4.19,3.02,0,1.93,1.23,4.09,2.4,5.45-1.29-1.1-3.07-2.16-4.66-2.16s-2.86,2.01-2.86,4.46,1.28,4.43,2.86,4.43,3.42-1.03,4.7-2.13l-.02.29c-.38,1.23-2.03,7.77-5.38,7.77l-5.56.21c-3.16,0-5.22-5.3-5.72-6.81l-.1-.46c1.46,1.09,2.99,1.29,4.56,1.29s2.93-1.58,2.54-4.03c-.39-2.45-1.99-4.83-3.57-4.83s-3.23,1.81-4.34,2.9c.97-1.37,1.88-3.55,1.57-5.47-.27-1.67-2.36-3.02-4.68-3.02s-3.97,1.35-3.7,3.02c.31,1.93,1.89,4.09,3.27,5.45-1.46-1.1-3.42-2.09-5.01-2.09s-2.54,2.34-2.15,4.78c.39,2.45,1.99,4.38,3.57,4.38s4.37-2.38,4.37-2.38c-.23.8-1.46,8.08-5.03,8.08l-5.56.68c-3.5,0-5.15-6.85-5.42-7.79,1.57,1.06,3.06,2.02,4.59,2.02s2.41-1.98,1.72-4.43c-.68-2.45-2.13-4.43-3.7-4.43s-3.11,1.02-4.09,2.11c.81-1.37,1.46-3.15.92-5.06-.47-1.67-2.72-3.02-5.04-3.02-.54,0-1.03.08-1.46.21l7.43,29.9c11.53-1.67,22.26-2.47,37.7-2.47h0Z"></path>
				<path class="cls-2" d="M236.8,107.42c-2.35-.06-6.65-.3-10.45.52-1.96-3.68-8.99-3.89-11.18-3.81-2.75.1-11.06.92-15.19,2.37-4.13-1.45-12.37-2.25-15.12-2.35-2.19-.08-9.22.21-11.18,3.92-3.8-.83-8.12-.59-10.48-.52-2.67.07-11.69,1.18-9.69,8.6l.76,2.4c1.24-.48,2.63-.53,4.49.23l-.62-1.88s-1.03-3.16,2.17-4.06c3.06-.86,7.33-.72,13.29,0l1.05,4.79c1.3-.41,3.34-.89,5.19.01l-1.15-5.24s-.53-2.84,2.83-3.48c2.93-.56,7.82.25,13.8,1.32,0,0,1.42.18,1.51,1.25.1,1.22.23,5.37.23,5.37.51-.38,2.05-.76,2.95-.75.9,0,2.27.34,2.78.73l.36-5.34c.13-.95,1.44-1.07,1.44-1.07,6.22-1.07,10.92-2.09,13.92-1.51,3.36.65,2.83,3.36,2.83,3.36l-1.2,5.38c1.85-.9,3.9-.41,5.21,0l1.08-4.92c5.95-.73,10.22-.86,13.27,0,3.21.9,2.17,4.06,2.17,4.06l-.52,1.88c1.85-.75,3.25-.7,4.49-.23l.65-2.4c2.01-7.42-7.02-8.53-9.69-8.6h0v-.03Z"></path>
				<path class="cls-2" d="M220.82,242.59c.96.04,1.63.03,2.4,0h1.1c2.85.08,6.11-.82,8.72-1.54,1.62-.45,3.03-.84,3.92-.87.1.04.77.4,1.61.87,4.66,2.55,17.03,9.34,21.54,9.39,1.22-.06,10.21-3.15,11.44-4.63l.07-.09-.08-.07c-.06-.05-7.11-4.91-8.37-4.83-.63-.04-.86.25-1.22.69-.31.39-.93,1.05-1.66,1.49,0,0-1.51.34-1.31,0,.05-.09.06-.11.1-.18.22-.41.55-1.02.7-1.64l.02-.07-.06-.05c-.44-.32-1.19-.46-2.23-.66-2.04-.39-5.13-.98-8.69-3.49-3.44-2.25-4.36-4.28-5.03-5.76-.65-1.43-1.08-2.37-3.33-2.33-1.26-.04-1.92.33-2.56.68-.6.33-1.17.65-2.24.63-.93,0-1.84-.37-2.56-1.07-.63-.62-1.03-1.42-1.04-2.09,0-.94.27-2.07.67-3.21.64-1.81,1.62-3.72,2.36-5.18.38-.75.71-1.39.89-1.83,2.24-5.01,2.88-8.4,3.27-10.43.31-1.66.46-2.42,1.15-2.44,1.41.03,1.58.91,2.02,3.25.44,2.32.82,3.69,2.96,9.65,1.28,3.54,4.33,5.69,7.46,6.99h.04c4.37,1.82,8.86,1.98,8.86,1.98.05,0,.28-.82.57-1.99.76-3.04,2-8.5,2-8.64v-.11h-.01c-.13-.56-1.51-.77-3.53-1.07-3.33-.5-8.16-1.31-9.45-4.47-2.73-6.72-5.27-9.27-10.27-9.3-1.66.02-2.49.91-2.9,1.34-.06.07-.13.14-.18.18-11.61-4.39-16.6-5.15-29.46.19-10.43,4.32-17.47,1.98-20.85.62.24-1.79.43-3.51.58-5.18.06-.66.7-1.11,1.33-.92,1.93.57,4.41,1.06,7.37,1.06,3.51,0,7.7-.69,12.45-2.66,6.13-2.54,10.2-3.57,13.95-3.57,1.54,0,3.08.18,4.74.53l1.11-4.45c-1.96-.42-3.87-.66-5.84-.66-4.64,0-9.35,1.28-15.71,3.92-4.23,1.75-7.78,2.31-10.69,2.31-3.07,0-5.43-.62-7.18-1.23-.65-.23-1.06-.85-1.03-1.54.06-1.48.09-2.91.1-4.29,0-.72.66-1.24,1.36-1.05,1.84.49,4.1.89,6.76.89,3.51,0,7.7-.69,12.45-2.66,6.13-2.54,10.2-3.57,13.95-3.57,2.37,0,4.73.42,7.5,1.23l1.11-4.45c-2.98-.86-5.73-1.36-8.6-1.36-4.64,0-9.35,1.28-15.7,3.92-4.23,1.75-7.78,2.31-10.69,2.31-3.14,0-5.55-.65-7.31-1.28-.59-.21-1-.76-1.04-1.38-.11-1.65-.25-3.19-.41-4.62-.07-.65.52-1.16,1.14-.96,2.05.64,4.73,1.22,8,1.22,3.61,0,7.92-.71,12.81-2.74,6.33-2.62,10.53-3.69,14.41-3.69,2.82,0,5.64.58,9.11,1.69l1.11-4.46c-3.61-1.14-6.83-1.81-10.22-1.82-4.77,0-9.61,1.32-16.17,4.03-4.37,1.81-8.04,2.39-11.05,2.39-3.95,0-6.79-.99-8.66-1.74l-1.55-.76c-.79-3.85-1.55-5.88-1.55-5.88.65-.8,2.99-3.65,2.99-3.65,0,0-21.35,0-35.82,5.42-3.38,1.27-6.79,2.26-8.9,3.65l2.08,8.66c.07.29.36.47.65.41l7.85-1.74c5.11,1.24,10.39,2.84,10.38,3.38,0,.52-.22.81-.73,1.44-1.13,1.41-3.48,4.33-7.34,14.68-5.19,13.89-3.77,25.35-3.71,26.11-.23.42-3.39,1.48-6.31,2.13-2.69.6-5.89,1.31-8.85,2.2h.02-.02c-5.09,1.54-9.5,3.64-9.52,6.7.02,2.99,1.18,5.49,3.66,7.87,2.23,2.14,5.5,4.19,10.6,6.64,7.31,3.52,12.03,5.29,14.71,6.15,2.8.9,4.26,1.11,4.56,1.07,2.46.06,11.5-3.85,12.06-4.16l.1-.06-.05-.1c-.15-.29-6.05-4.54-7.3-4.65h0c-.83.07-1.22.4-1.86.94-.24.2-.54.45-.91.74l-.26-.73c-.19-.55-.22-.84-.24-.95,0-.18-.03-.46-.17-.57l-.7-.08h-.05c-.32.18-.59.35-.82.51-.64.42-1.15.74-2.41.8-2.13-.03-6.47-1.54-14.93-8.53-.19-.15-.3-.25-.38-.31.44-.39.75-.66,1.36-.75h19.2c.81.06,1.68-.54,2.39-1.03.37-.26.73-.5.88-.5,0,0,3.07,2.42,8.16,2.42,8.31.2,25.13-3.17,25.13-3.17,2.01,0,2.71,1.39,3.37,2.38.99,1.48,1.58,3.86,5.23,5.46,3.26,1.43,4.66,2.06,7.83,2.46,1.48.19,3,.29,3.33.28l-.04-.02Z"></path>
			</g>
		</g>
		<g>
			<path class="cls-2" d="M152.99,319.81v-36.07h9.04c3.65,0,6.55.9,8.69,2.71,2.14,1.81,3.21,4.25,3.21,7.33,0,2.1-.53,3.92-1.58,5.45-1.05,1.53-2.56,2.68-4.52,3.43,1.15.76,2.28,1.79,3.38,3.1,1.1,1.31,2.65,3.59,4.65,6.84,1.26,2.05,2.26,3.59,3.02,4.62l1.91,2.58h-6.15l-1.57-2.38c-.05-.09-.15-.23-.31-.44l-1.01-1.42-1.6-2.63-1.73-2.82c-1.07-1.48-2.04-2.66-2.93-3.54-.89-.88-1.69-1.51-2.4-1.89-.72-.39-1.92-.58-3.61-.58h-1.34v15.7h-5.16ZM159.7,288.13h-1.55v11.39h1.96c2.62,0,4.41-.22,5.38-.67.97-.45,1.73-1.12,2.27-2.03s.81-1.93.81-3.09-.3-2.16-.9-3.09c-.6-.92-1.45-1.57-2.54-1.95-1.09-.38-2.9-.57-5.44-.57Z"></path>
			<path class="cls-2" d="M213.47,283.74h4.83v36.07h-5.19v-28.07l-11.09,13.94h-.96l-11.22-13.94v28.07h-5.16v-36.07h4.89l11.99,14.82,11.92-14.82Z"></path>
			<path class="cls-2" d="M226.07,283.74h20.45v4.6h-15.29v11h14.77v4.62h-14.77v11.21h15.78v4.6h-20.94v-36.02Z"></path>
		</g>
	</g>
</svg>