<svg width="21" height="21" viewBox="0 0 21 21" fill="none" xmlns="http://www.w3.org/2000/svg">
<rect x="0.966146" y="1.30843" width="18.3333" height="18.3333" rx="9.16667" fill="white"/>
<rect x="0.966146" y="1.30843" width="18.3333" height="18.3333" rx="9.16667" stroke="#00131C" stroke-width="1.66667"/>
<path d="M10.1292 16.5467C9.77038 16.5467 9.46447 16.4189 9.2115 16.1634C8.95852 15.9078 8.83203 15.6006 8.83203 15.2418C8.83203 14.883 8.9598 14.5771 9.21533 14.3241C9.47087 14.0711 9.77805 13.9446 10.1369 13.9446C10.4957 13.9446 10.8016 14.0724 11.0546 14.3279C11.3076 14.5835 11.4341 14.8906 11.4341 15.2495C11.4341 15.6083 11.3063 15.9142 11.0508 16.1672C10.7952 16.4202 10.488 16.5467 10.1292 16.5467ZM8.83203 12.2099V4.40381H11.4341V12.2099H8.83203Z" fill="#00131C"/>
</svg>
