<svg width="30" height="31" viewBox="0 0 30 31" fill="none" xmlns="http://www.w3.org/2000/svg">
<path d="M1.5 26.0249L15 3.5249L28.5 26.0249H1.5Z" fill="#00131C"/>
<path d="M14.9934 22.2749C15.3103 22.2749 15.5781 22.1677 15.7969 21.9534C16.0156 21.739 16.125 21.4734 16.125 21.1565C16.125 20.8396 16.0178 20.5718 15.8035 20.353C15.5891 20.1343 15.3235 20.0249 15.0066 20.0249C14.6897 20.0249 14.4219 20.1321 14.2031 20.3464C13.9844 20.5608 13.875 20.8264 13.875 21.1433C13.875 21.4602 13.9822 21.728 14.1965 21.9468C14.4109 22.1655 14.6765 22.2749 14.9934 22.2749ZM13.875 18.5249H16.125V12.5249H13.875V18.5249Z" fill="white"/>
</svg>
