<svg width="131" height="116" viewBox="0 0 131 116" fill="none" xmlns="http://www.w3.org/2000/svg">
<path d="M53.6157 73.7202L66.7025 68.537L58.9003 48.3167L79.1207 40.5145L74.1699 27.338L40.7017 40.252L53.6157 73.7202ZM84.5372 87.423L118.005 74.509L105.091 41.0408L92.0046 46.224L99.8068 66.4444L79.5864 74.2466L84.5372 87.423ZM8.56694 95.375C5.02385 93.8049 2.54981 91.1992 1.14482 87.558C-0.26017 83.9168 -0.177607 80.3246 1.39251 76.7815L41.3591 -13.4061C42.9292 -16.9492 45.5349 -19.4232 49.1761 -20.8282C52.8173 -22.2332 56.4095 -22.1506 59.9525 -20.5805L150.14 19.3861C153.683 20.9562 156.157 23.5618 157.562 27.2031C158.967 30.8443 158.885 34.4364 157.315 37.9795L117.348 128.167C115.778 131.71 113.172 134.184 109.531 135.589C105.89 136.994 102.298 136.912 98.7545 135.342L8.56694 95.375ZM14.2765 82.491L104.464 122.458L144.431 32.27L54.243 -7.69658L14.2765 82.491Z" fill="#C9CBCF"/>
</svg>
