<svg width="163" height="116" viewBox="0 0 163 116" fill="none" xmlns="http://www.w3.org/2000/svg">
<mask id="mask0_139_3517" style="mask-type:alpha" maskUnits="userSpaceOnUse" x="0" y="-46" width="207" height="208">
<rect x="61.3774" y="-45.3398" width="157.75" height="157.75" transform="rotate(22.8847 61.3774 -45.3398)" fill="#D9D9D9"/>
</mask>
<g mask="url(#mask0_139_3517)">
<path d="M86.6776 43.4625L105.257 35.7871L100.421 23.5794L90.9483 27.4289L86.049 15.3726L95.3704 11.4592L91.4335 1.77114L72.7031 9.38257L86.6776 43.4625ZM115.31 114.229L134.04 106.618L130.103 96.9298L120.694 100.628L115.795 88.5716L125.116 84.6582L120.066 72.538L101.55 80.062L115.31 114.229ZM51.6029 100.359L25.8667 89.4958L36.73 63.7596L74.406 48.4493L55.5961 2.16167L98.6544 -15.3359L117.552 31.167L150.125 17.805C151.847 17.1051 153.593 16.7719 155.362 16.8053C157.132 16.8388 158.824 17.1963 160.439 17.8779C162.054 18.5596 163.49 19.5226 164.748 20.7672C166.007 22.0118 166.986 23.4953 167.686 25.2176L172.259 36.7794C172.959 38.5017 173.292 40.2476 173.258 42.0171C173.225 43.7866 172.867 45.4788 172.186 47.0936C171.504 48.7084 170.552 50.1198 169.328 51.3276C168.105 52.5354 166.632 53.4893 164.91 54.1892L132.337 67.5512L151.147 113.839L108.089 131.336L89.2789 85.0488L51.6029 100.359ZM43.09 82.4968L51.5678 86.0753L135.898 51.9315L130.911 39.6599L46.6685 74.019L43.09 82.4968Z" fill="#C9CBCF"/>
</g>
</svg>
