<svg width="163" height="116" viewBox="0 0 163 116" fill="none" xmlns="http://www.w3.org/2000/svg">
<g id="wysiwyg">
<mask id="mask0_139_3041" style="mask-type:alpha" maskUnits="userSpaceOnUse" x="0" y="-55" width="226" height="226">
<rect id="Bounding box" x="72.6179" y="-54.6621" width="169.108" height="169.108" transform="rotate(25.4186 72.6179 -54.6621)" fill="#D9D9D9"/>
</mask>
<g mask="url(#mask0_139_3041)">
<path id="wysiwyg_2" d="M40.9255 94.1052C37.4253 92.4418 35.0211 89.7715 33.7131 86.0943C32.4051 82.4172 32.5828 78.8285 34.2462 75.3282L76.588 -13.7689C78.2514 -17.2692 80.9217 -19.6733 84.5989 -20.9813C88.2761 -22.2894 91.8648 -22.1117 95.365 -20.4482L184.462 21.8936C187.962 23.557 190.367 26.2273 191.675 29.9045C192.983 33.5816 192.805 37.1703 191.141 40.6706L148.8 129.768C147.136 133.268 144.466 135.672 140.789 136.98C137.112 138.288 133.523 138.11 130.023 136.447L40.9255 94.1052ZM46.9743 81.3771L136.071 123.719L172.364 47.3499L83.2673 5.00809L46.9743 81.3771ZM80.8734 42.8773L86.9223 30.1492L150.563 60.3933L144.514 73.1215L80.8734 42.8773ZM68.7758 68.3337L74.8246 55.6055L113.009 73.752L106.96 86.4802L68.7758 68.3337Z" fill="#C9CBCF"/>
</g>
</g>
</svg>
