<svg width="21" height="20" viewBox="0 0 21 20" fill="none" xmlns="http://www.w3.org/2000/svg">
<rect x="1.06429" y="0.833333" width="18.3333" height="18.3333" rx="9.16667" fill="white"/>
<rect x="1.06429" y="0.833333" width="18.3333" height="18.3333" rx="9.16667" stroke="#00131C" stroke-width="1.66667"/>
<path d="M10.2274 16.0716C9.86852 16.0716 9.56262 15.9438 9.30964 15.6883C9.05666 15.4327 8.93018 15.1255 8.93018 14.7667C8.93018 14.4079 9.05794 14.102 9.31347 13.849C9.56901 13.596 9.8762 13.4695 10.235 13.4695C10.5939 13.4695 10.8998 13.5973 11.1528 13.8528C11.4057 14.1084 11.5322 14.4156 11.5322 14.7744C11.5322 15.1332 11.4045 15.4391 11.1489 15.6921C10.8934 15.9451 10.5862 16.0716 10.2274 16.0716ZM8.93018 11.7348V3.92871H11.5322V11.7348H8.93018Z" fill="#00131C"/>
</svg>
